# xmcd
#
# Track frame offsets:
#	150
#	16525
#	35202
#	49147
#	61007
#	74580
#	91432
#	105980
#	120267
#	135017
#
# Disc length: 1989 seconds
#
# Revision: 0
# Processed by: cddbd v1.4PL0 Copyright (c) Steve Scherf et al.
# Submitted via: MusicWizard 6.0.0
#
DISCID=7407c30a
DTITLE=Johnny Cash - Biggest Hits
DYEAR=1987
DGENRE=Country
TTITLE0=The Baron
TTITLE1=The Ballad Of Ira Hayes
TTITLE2=It'll Be Her
TTITLE3=Flesh And Blood
TTITLE4=Mobile Bay
TTITLE5=A Boy Named Sue
TTITLE6=The L&N Don't Stop Here Anymore
TTITLE7=Bull Rider
TTITLE8=The Last Time
TTITLE9=The Reverend Mr Black
EXTD=(c)1987 CBS Inc\nupc 07464383172
EXTT0=
EXTT1=
EXTT2=
EXTT3=
EXTT4=
EXTT5=
EXTT6=
EXTT7=
EXTT8=
EXTT9=
PLAYORDER=
